<svg fill="currentColor" class="ugb-custom-icon" xmlns="http://www.w3.org/2000/svg" viewBox="0 0 60 60" width="32" height="32" aria-hidden="true"><g id="Icons"><path d="M52.513,29.085,49.056,14.233a1,1,0,0,0-.764-.751A45.611,45.611,0,0,1,30.6,5.4a1,1,0,0,0-1.2,0,45.611,45.611,0,0,1-17.691,8.084,1,1,0,0,0-.764.751L7.488,29.085A18.951,18.951,0,0,0,18.449,50.637L29.6,55.544a1,1,0,0,0,.806,0l11.148-4.907A18.952,18.952,0,0,0,52.513,29.085ZM40.744,48.807,30,53.536,19.256,48.807a16.95,16.95,0,0,1-9.82-19.269L12.749,15.3A47.683,47.683,0,0,0,30,7.44,47.691,47.691,0,0,0,47.251,15.3l3.314,14.238A16.951,16.951,0,0,1,40.744,48.807Z"></path><path d="M53.779,44.89a22.634,22.634,0,0,0,2.629-16.711L52.357,10.773a1,1,0,0,0-.824-.762A41.173,41.173,0,0,1,30.7.286a1,1,0,0,0-1.4,0A41.173,41.173,0,0,1,8.467,10.011a1,1,0,0,0-.824.762L3.592,28.179A22.634,22.634,0,0,0,6.221,44.89L.6,50.467A2,2,0,0,0,1.6,53.851l3.744.757.72,3.751a2,2,0,0,0,1.369,1.528A2.007,2.007,0,0,0,9.444,59.4l5.89-5.844c.492.26.987.515,1.5.742L29.6,59.915a1,1,0,0,0,.806,0L43.163,54.3c.516-.227,1.011-.482,1.5-.742L50.56,59.4a2,2,0,0,0,1.4.574,2.037,2.037,0,0,0,.6-.091,2,2,0,0,0,1.37-1.529l.713-3.757L58.4,53.85a2,2,0,0,0,1-3.38ZM8.032,57.981l-.717-3.734A2,2,0,0,0,5.746,52.64L2,51.89,7.338,46.6a23.132,23.132,0,0,0,6.211,5.911Zm34.324-5.513L30,57.907,17.644,52.468a20.954,20.954,0,0,1-12.1-23.836l3.9-16.75A43.122,43.122,0,0,0,30,2.354a43.122,43.122,0,0,0,20.562,9.528l3.9,16.75A20.954,20.954,0,0,1,42.356,52.468Zm11.9.172a2,2,0,0,0-1.566,1.591l-.724,3.749-5.513-5.469A23.158,23.158,0,0,0,52.663,46.6L58,51.89Z"></path><path d="M25.86,31.148l-3.174.352a.161.161,0,0,1-.137-.055l-2.081-2.466a2.156,2.156,0,0,0-3.772,1.01l-.568,3.176a.154.154,0,0,1-.092.116l-2.925,1.284a2.156,2.156,0,0,0-.235,3.829l2.9,1.725a.154.154,0,0,1,.074.117l.339,3.379a2.154,2.154,0,0,0,3.642,1.336L22.07,42.8a.155.155,0,0,1,.148-.04l3.012.747a2.157,2.157,0,0,0,2.486-2.98l-1.395-3.091a.163.163,0,0,1,.006-.143l1.652-2.944a2.158,2.158,0,0,0-2.119-3.2Zm.374,2.221-1.65,2.943a2.169,2.169,0,0,0-.087,1.943l1.4,3.094a.144.144,0,0,1-.023.164.147.147,0,0,1-.159.051L22.7,40.817a2.149,2.149,0,0,0-2.015.541l-2.236,2.154a.152.152,0,0,1-.163.034.144.144,0,0,1-.1-.131l-.339-3.38A2.163,2.163,0,0,0,16.8,38.4l-2.9-1.725a.144.144,0,0,1-.076-.144.146.146,0,0,1,.094-.133l2.926-1.284A2.158,2.158,0,0,0,18.1,33.518l.568-3.176a.142.142,0,0,1,.114-.124.173.173,0,0,1,.047-.007.137.137,0,0,1,.112.057l2.081,2.465a2.146,2.146,0,0,0,1.886.755l3.176-.351a.156.156,0,0,1,.153.232Z"></path><path d="M46.754,34.565l-2.926-1.284a.154.154,0,0,1-.092-.115l-.568-3.177h0A2.156,2.156,0,0,0,39.4,28.979l-2.082,2.467a.142.142,0,0,1-.134.054L34,31.148a2.157,2.157,0,0,0-2.118,3.2l1.652,2.945a.157.157,0,0,1,.005.14l-1.394,3.093a2.156,2.156,0,0,0,2.484,2.98l3.014-.747a.162.162,0,0,1,.147.039l2.235,2.153a2.14,2.14,0,0,0,1.49.607,2.166,2.166,0,0,0,2.152-1.944l.339-3.376a.157.157,0,0,1,.076-.12l2.9-1.723a2.157,2.157,0,0,0-.234-3.83Zm-.787,2.11-2.9,1.723a2.16,2.16,0,0,0-1.046,1.639l-.339,3.377a.145.145,0,0,1-.1.132.147.147,0,0,1-.163-.034l-2.235-2.155a2.148,2.148,0,0,0-1.492-.6,2.182,2.182,0,0,0-.523.064l-3.015.747a.145.145,0,0,1-.157-.051.14.14,0,0,1-.021-.164l1.394-3.1a2.166,2.166,0,0,0-.086-1.94L33.63,33.369a.156.156,0,0,1,.153-.232l3.177.351a2.144,2.144,0,0,0,1.885-.754l2.081-2.466a.133.133,0,0,1,.159-.05.141.141,0,0,1,.114.124l.569,3.177a2.157,2.157,0,0,0,1.255,1.594L45.95,36.4a.157.157,0,0,1,.017.278Z"></path><path d="M34.806,29a2,2,0,0,0,1.968-2.343L36.021,22.3l3.188-3.083A2,2,0,0,0,38.1,15.8l-4.42-.637L31.7,11.173a2,2,0,0,0-3.581,0l-1.982,3.985-4.422.638a2,2,0,0,0-1.105,3.417L23.8,22.3l-.754,4.361a2,2,0,0,0,2.9,2.114l3.968-2.07,3.97,2.07A1.986,1.986,0,0,0,34.806,29Zm-4.9-4.3a1.992,1.992,0,0,0-.925.227L25.016,27l.754-4.36a1.994,1.994,0,0,0-.581-1.779L22,17.775l4.422-.637a2,2,0,0,0,1.5-1.089l1.979-3.991,0,.005,1.984,3.986a2,2,0,0,0,1.505,1.09l4.42.636-3.186,3.081a1.994,1.994,0,0,0-.582,1.78L34.8,27l-3.969-2.07A1.99,1.99,0,0,0,29.909,24.7Z"></path></g></svg>