<svg fill="currentColor" class="ugb-custom-icon" height="32" viewBox="0 0 512 512.0087" width="32" xmlns="http://www.w3.org/2000/svg" aria-hidden="true"><path d="m42.671875 298.667969c4.710937 0 8.53125-3.820313 8.53125-8.535157v-187.734374c0-4.710938-3.820313-8.53125-8.53125-8.53125-4.714844 0-8.535156 3.820312-8.535156 8.53125v187.734374c0 4.714844 3.820312 8.535157 8.535156 8.535157zm0 0"></path><path d="m42.671875 76.800781c4.710937 0 8.53125-3.820312 8.53125-8.535156v-17.066406c0-4.710938-3.820313-8.53125-8.53125-8.53125-4.714844 0-8.535156 3.820312-8.535156 8.53125v17.066406c0 4.714844 3.820312 8.535156 8.535156 8.535156zm0 0"></path><path d="m256.003906 170.667969c-18.851562 0-34.132812 15.28125-34.132812 34.132812 0 18.851563 15.28125 34.132813 34.132812 34.132813 18.851563 0 34.132813-15.28125 34.132813-34.132813-.019531-18.84375-15.289063-34.113281-34.132813-34.132812zm0 51.199219c-9.425781 0-17.066406-7.640626-17.066406-17.066407s7.640625-17.066406 17.066406-17.066406c9.425782 0 17.066406 7.640625 17.066406 17.066406-.007812 9.421875-7.644531 17.058594-17.066406 17.066407zm0 0"></path><path d="m350.003906 170.636719h-.109375l-15.683593-.007813c-2.558594-5.820312-5.746094-11.34375-9.511719-16.46875l7.886719-13.683594c4.570312-8.179687 1.738281-18.515624-6.363282-23.222656l-29.464844-16.988281c-3.886718-2.300781-8.535156-2.945313-12.902343-1.789063-4.394531 1.152344-8.152344 4.003907-10.449219 7.925782l-7.898438 13.625c-6.320312-.710938-12.707031-.707032-19.027343.015625l-7.847657-13.601563c-4.722656-8.152344-15.152343-10.945312-23.316406-6.246094l-29.554687 17.066407c-8.152344 4.71875-10.949219 15.148437-6.253907 23.3125l7.855469 13.597656c-3.78125 5.117187-6.976562 10.644531-9.523437 16.472656l-15.765625.023438c-4.539063.03125-8.882813 1.863281-12.078125 5.089843-3.167969 3.175782-4.933594 7.488282-4.898438 11.976563l-.019531 34.070313c.019531 9.421874 7.613281 17.070312 17.035156 17.15625l15.6875.011718c1.277344 2.910156 2.714844 5.746094 4.304688 8.5 1.585937 2.75 3.324219 5.410156 5.203125 7.96875l-7.894532 13.691406c-4.5625 8.183594-1.722656 18.507813 6.375 23.210938l29.453126 16.980469c3.886718 2.304687 8.539062 2.953125 12.910156 1.796875 4.394531-1.152344 8.15625-4.003906 10.453125-7.925782l7.894531-13.628906c6.324219.714844 12.707031.710938 19.03125-.011718l7.84375 13.601562c2.257812 3.925781 5.992188 6.785156 10.367188 7.941406 1.453124.390625 2.953124.589844 4.457031.589844 2.984375 0 5.914062-.789062 8.492187-2.285156l29.554688-17.066406c8.152344-4.722657 10.949218-15.148438 6.253906-23.3125l-7.847656-13.597657c3.777344-5.117187 6.972656-10.640625 9.515625-16.472656l15.765625-.019531c4.542968-.03125 8.886718-1.863282 12.078125-5.09375 3.167969-3.175782 4.933593-7.488282 4.902343-11.972656l.015626-34.070313c-.007813-9.382813-7.542969-17.023437-16.925782-17.160156zm-21.671875 51.257812c-3.628906.007813-6.859375 2.3125-8.046875 5.742188-2.769531 7.867187-6.976562 15.152343-12.410156 21.476562-2.355469 2.75-2.71875 6.683594-.910156 9.820313l10.75 18.621094-29.558594 17.070312-10.75-18.625c-1.527344-2.640625-4.34375-4.265625-7.390625-4.265625-.527344 0-1.050781.046875-1.570313.144531-8.199218 1.535156-16.609374 1.539063-24.8125.007813-3.5625-.691407-7.175781.957031-8.988281 4.101562l-10.792969 18.605469-29.601562-17.039062 10.738281-18.613282c1.8125-3.140625 1.441407-7.082031-.921875-9.828125-5.40625-6.351562-9.609375-13.632812-12.402344-21.492187-1.199218-3.417969-4.425781-5.710938-8.050781-5.710938l-21.460937-.0625-.039063-34.113281 21.5625-.03125c3.632813-.003906 6.863281-2.308594 8.050781-5.742187 2.765626-7.867188 6.972657-15.148438 12.40625-21.472657 2.355469-2.75 2.722657-6.6875.914063-9.820312l-10.753906-18.621094 29.558593-17.070313 10.753907 18.625c1.800781 3.140626 5.398437 4.796876 8.957031 4.121094 8.199219-1.546875 16.613281-1.550781 24.8125-.011718 3.566406.6875 7.171875-.957032 8.992188-4.097657l10.792968-18.613281 29.59375 17.046875-10.738281 18.613281c-1.808594 3.136719-1.441406 7.078125.921875 9.828125 5.410156 6.347657 9.617188 13.632813 12.414062 21.492188 1.199219 3.417969 4.425782 5.707031 8.050782 5.710937l21.460937.011719.03125 34.164063zm0 0"></path><path d="m511.972656 92.011719c-.929687-27.566407-23.582031-49.417969-51.167968-49.34375h-341.332032v-25.601563c-.011718-9.421875-7.644531-17.0585935-17.066406-17.066406h-51.203125c-13.589844-.0351562-26.632813 5.347656-36.242187 14.957031-9.609376 9.609375-14.992188 22.652344-14.95703175 36.242188v366.964843c.98046875 27.570313 22.95703175 49.769532 50.51953175 51.027344.234374.019532.441406.140625.679687.140625h5.890625l12.628906 27.683594c.636719 1.371094 1.398438 2.683594 2.265625 3.917969.273438.398437.578125.761718.871094 1.144531.636719.816406 1.320313 1.597656 2.054687 2.332031.359376.363282.703126.726563 1.085938 1.066406 1.050781.945313 2.175781 1.808594 3.371094 2.570313.261718.167969.554687.285156.828125.441406 1.027343.597657 2.097656 1.121094 3.199219 1.566407.226562.09375.425781.234374.652343.320312.285157.105469.578125.144531.863281.238281.828126.273438 1.667969.503907 2.519532.691407.527344.121093 1.042968.257812 1.570312.34375 1.085938.167968 2.175782.265624 3.273438.292968.25.007813.5.066406.75.066406 3.660156-.003906 7.277344-.792968 10.605468-2.320312l88.476563-40.355469h200.429687v25.601563c.007813 9.421875 7.644532 17.058594 17.066407 17.066406h51.199219c28.265624-.03125 51.167968-22.9375 51.199218-51.199219v-366.933593c0-.101563-.054687-.183594-.058594-.285157 0-.523437.042969-1.042969.027344-1.570312zm-484.976562-64.953125c6.429687-6.40625 15.132812-10 24.207031-9.992188h51.203125v349.867188h-51.203125c-12.597656.003906-24.75 4.65625-34.132813 13.0625v-328.796875c-.011718-9.042969 3.554688-17.722657 9.925782-24.140625zm285.355468 364.464844-18.070312-39.617188 54.628906-3.601562 1.726563 4.574218zm-35.183593-36.015626 7.082031 15.53125-54.347656 24.789063c-2.820313 1.234375-4.757813 3.894531-5.066406 6.957031-.308594 3.0625 1.058593 6.054688 3.574218 7.832032 2.515625 1.773437 5.792969 2.054687 8.574219.734374l54.347656-24.792968 7.082031 15.53125-111.445312 50.832031-.15625.070313-43.675781 19.925781-7.085938-15.53125 62.117188-28.332031c4.210937-1.996094 6.042969-7.007813 4.105469-11.25-1.933594-4.242188-6.917969-6.144532-11.1875-4.273438l-62.113282 28.328125-7.082031-15.527344zm-180.613281 138.652344c-4.285157 1.953125-9.34375.066406-11.300782-4.21875l-14.167968-31.058594c-1.949219-4.289062-.066407-9.347656 4.21875-11.308593l31.0625-14.167969 10.617187 23.285156v.007813l.007813.011719 10.617187 23.28125zm132.972656-41.894531 83.734375-38.191406c.429687-.253907.835937-.546875 1.207031-.875.464844-.25.90625-.546875 1.316406-.882813l46.734375-47.183594c5.386719-5 6.957031-12.890624 3.902344-19.574218l-1.976563-4.328125c-2.964843-6.597657-9.792968-10.585938-16.996093-9.929688l-66.617188 4.386719c-.921875.078125-1.828125.308594-2.679687.683594-.097656.039062-.203125.027344-.296875.070312l-209.632813 95.609375c-8.089844 3.714844-13.65625 11.375-14.695312 20.214844h-.273438c-19.292968.242187-35.300781-14.859375-36.183594-34.132813v-1.242187c.621094-18.386719 15.738282-32.953125 34.132813-32.890625h51.203125c9.421875-.007812 17.054688-7.644531 17.066406-17.066406v-307.199219h341.332032c18.394531-.070313 33.511718 14.5 34.117187 32.886719.242187 8.957031-3.195313 17.621094-9.507813 23.980468-6.988281 7.238282-16.605468 11.351563-26.667968 11.398438h-49.140625c-9.421875.007812-17.058594 7.644531-17.066407 17.066406v307.199219zm231.277344 42.667969h-51.199219v-349.867188h49.140625c13.378906-.066406 26.265625-5.066406 36.191406-14.039062v329.773437c-.019531 18.84375-15.289062 34.113281-34.132812 34.132813zm0 0"></path></svg>