<svg fill="currentColor" class="ugb-custom-icon" xmlns="http://www.w3.org/2000/svg" viewBox="0 0 60 60" width="32" height="32" aria-hidden="true"><g id="Icons"><path d="M52.2,18.048A7.962,7.962,0,0,0,54,13V8A8,8,0,0,0,38,8v5a7.962,7.962,0,0,0,1.8,5.048A8.245,8.245,0,0,0,33.688,21.6c-.825,1.238-1.591,2.912-1.679,6.671a7.72,7.72,0,0,0-4.018,0c-.088-3.759-.854-5.434-1.681-6.676A8.248,8.248,0,0,0,20.2,18.048,7.962,7.962,0,0,0,22,13V8A8,8,0,0,0,6,8v5a7.962,7.962,0,0,0,1.8,5.048A8.245,8.245,0,0,0,1.688,21.6C.811,22.911,0,24.718,0,29v1a2,2,0,0,0,2,2H23.083A7.93,7.93,0,0,0,22,36v4.673c-.173.244-.395.518-.666.841-1.476,1.753-3.885,4.631-2.262,8.991A8.29,8.29,0,0,0,16,57v1a2,2,0,0,0,2,2H42a2,2,0,0,0,2-2V57a8.29,8.29,0,0,0-3.072-6.495c1.623-4.36-.786-7.238-2.262-8.991-.271-.323-.493-.6-.666-.841V36a7.93,7.93,0,0,0-1.083-4H58a2,2,0,0,0,2-2V29c0-4.282-.811-6.089-1.69-7.41A8.248,8.248,0,0,0,52.2,18.048ZM40,13V10.08c1.982.109,5.98.09,7.89-1.62.043-.037.084-.076.124-.115A5.937,5.937,0,0,0,52,10.916V13a6,6,0,0,1-12,0ZM46,2a6.006,6.006,0,0,1,6,6v.881a4.51,4.51,0,0,1-3.03-3.124A1,1,0,0,0,47,6a1.215,1.215,0,0,1-.443.97C45.381,8.023,42.22,8.209,40,8.08V8A6.006,6.006,0,0,1,46,2ZM35.99,35.8C33.668,35.294,31,34.238,31,33a1,1,0,0,0-2,0c0,1.238-2.668,2.294-4.99,2.8a5.993,5.993,0,0,1,11.98,0ZM29,48.931a7.281,7.281,0,0,0,2,0V51a1,1,0,0,1-2,0ZM30,47a6.006,6.006,0,0,1-6-6V37.845c1.575-.3,4.474-1.036,6-2.582,1.526,1.546,4.425,2.283,6,2.582V41A6.006,6.006,0,0,1,30,47ZM8,13V10.08c1.983.109,5.98.09,7.89-1.62.043-.037.084-.076.124-.115A5.937,5.937,0,0,0,20,10.916V13A6,6,0,0,1,8,13ZM14,2a6.006,6.006,0,0,1,6,6v.881a4.51,4.51,0,0,1-3.03-3.124A1,1,0,0,0,15,6a1.215,1.215,0,0,1-.443.97C13.381,8.023,10.221,8.209,8,8.08V8A6.006,6.006,0,0,1,14,2ZM2,29c0-3.75.649-5.242,1.349-6.291A6.3,6.3,0,0,1,8.61,20h1.526a7.965,7.965,0,0,0,7.728,0H19.39a6.3,6.3,0,0,1,5.258,2.7C25.351,23.758,26,25.25,26,29v.082A8.08,8.08,0,0,0,24.726,30H2ZM22.369,43.4A8.024,8.024,0,0,0,25.3,47.458a17.084,17.084,0,0,0-4.523,1.828C20.024,46.677,21.174,44.871,22.369,43.4ZM42,57v1H18V57c0-5.589,6.391-7.351,9-7.838V51a3,3,0,0,0,6,0V49.162C35.609,49.649,42,51.411,42,57Zm-2.774-7.714A17.084,17.084,0,0,0,34.7,47.458,8.024,8.024,0,0,0,37.631,43.4C38.826,44.871,39.976,46.677,39.226,49.286ZM58,30H35.274A8.08,8.08,0,0,0,34,29.082V29c0-3.75.649-5.242,1.349-6.291A6.3,6.3,0,0,1,40.61,20h1.526a7.965,7.965,0,0,0,7.728,0H51.39a6.3,6.3,0,0,1,5.258,2.7C57.351,23.758,58,25.25,58,29Z"></path><path d="M6.978,34.789a1,1,0,1,0-1.956.422A24.967,24.967,0,0,0,14.4,49.8,1,1,0,1,0,15.6,48.2,22.957,22.957,0,0,1,6.978,34.789Z"></path><path d="M46.6,49.8a24.967,24.967,0,0,0,9.374-14.584,1,1,0,1,0-1.956-.422A22.957,22.957,0,0,1,45.4,48.2,1,1,0,0,0,46.6,49.8Z"></path><path d="M24.812,5.539A1,1,0,0,0,25.227,7.5a23.333,23.333,0,0,1,9.572,0,1,1,0,0,0,.416-1.956A25.339,25.339,0,0,0,24.812,5.539Z"></path></g></svg>